<?xml version="1.0" encoding="utf-8"?>
<!-- Generator: Adobe Illustrator 12.0.0, SVG Export Plug-In . SVG Version: 6.00 Build 51448)  -->
<!DOCTYPE svg PUBLIC "-//W3C//DTD SVG 1.1//EN" "http://www.w3.org/Graphics/SVG/1.1/DTD/svg11.dtd" [
	<!ENTITY ns_svg "http://www.w3.org/2000/svg">
	<!ENTITY ns_xlink "http://www.w3.org/1999/xlink">
]>
<svg  version="1.1" id="レイヤー_1" xmlns="&ns_svg;" xmlns:xlink="&ns_xlink;" width="110" height="53"
	 viewBox="0 0 110 53" overflow="visible" enable-background="new 0 0 110 53" xml:space="preserve">
<g>
	<path d="M5.054,9.744c0.602-0.042,0.742-0.056,0.924-0.14c0.308-0.14,0.378-0.434,0.378-1.442V2.268
		C6.328,1.05,6.328,1.05,6.216,0.952c-0.112-0.098-0.28-0.126-0.63-0.126H5.054V0.42c1.064-0.07,1.974-0.196,2.66-0.364
		c-0.07,1.106-0.112,2.296-0.112,3.948v4.158c0,0.938,0.056,1.218,0.252,1.386c0.168,0.14,0.224,0.154,1.022,0.196v0.406H5.054
		V9.744z"/>
	<path d="M19.39,4.984c0.728-0.714,1.442-1.008,2.478-1.008c1.862,0,3.08,1.246,3.08,3.136c0,1.974-1.386,3.248-3.556,3.248
		c-1.638,0-2.996-0.826-2.996-1.806c0-0.406,0.252-0.616,0.756-0.616c0.448,0,0.574,0.112,0.602,0.574
		c0.07,0.924,0.7,1.47,1.68,1.47c1.33,0,2.212-1.106,2.212-2.772c0-0.798-0.182-1.498-0.504-2.002
		C22.82,4.704,22.218,4.41,21.56,4.41c-0.98,0-1.918,0.644-2.366,1.624L18.76,5.978l0.462-5.768h5.292l-0.196,1.092h-4.634
		L19.39,4.984z"/>
	<path d="M36.722,4.942c0.7,0.056,1.12,0.168,1.568,0.392c0.798,0.42,1.26,1.204,1.26,2.17c0,1.722-1.386,2.87-3.472,2.87
		c-1.82,0-3.178-0.868-3.178-2.03c0-0.448,0.252-0.658,0.798-0.658c0.406,0,0.56,0.14,0.588,0.532
		c0.028,0.686,0.098,0.952,0.35,1.26c0.28,0.336,0.77,0.518,1.386,0.518c1.386,0,2.198-0.924,2.198-2.506
		c0-0.98-0.336-1.708-0.938-2.03c-0.406-0.21-0.994-0.336-1.624-0.336h-0.616V4.676h0.616c0.56,0,1.12-0.154,1.526-0.42
		c0.518-0.35,0.798-0.98,0.798-1.778c0-0.546-0.126-1.036-0.35-1.4c-0.294-0.476-0.756-0.7-1.456-0.7
		c-1.05,0-1.582,0.546-1.652,1.666c-0.028,0.532-0.154,0.672-0.644,0.672c-0.518,0-0.742-0.154-0.742-0.532
		c0-1.19,1.386-2.184,3.052-2.184c1.778,0,3.08,1.036,3.08,2.45c0,0.784-0.434,1.484-1.148,1.904c-0.392,0.21-0.77,0.336-1.4,0.462
		V4.942z"/>
	<path d="M53.158,8.428c0,0.672,0.07,1.008,0.252,1.148c0.126,0.112,0.238,0.14,0.784,0.154v0.42h-3.36V9.73
		c0.616-0.014,0.728-0.042,0.882-0.154c0.182-0.14,0.252-0.476,0.252-1.148V7.42h-4.746V6.762L52.275,0h0.882v6.804h1.456V7.42
		h-1.456V8.428z M51.968,1.274l-4.102,5.53h4.102V1.274z"/>
	<path d="M62.341,5.67c1.064-1.498,2.086-2.198,3.248-2.198c0.77,0,1.484,0.294,3.556,1.512c1.61,0.924,2.338,1.232,2.996,1.232
		c0.336,0,0.77-0.154,1.134-0.42c0.35-0.238,0.672-0.588,1.134-1.218l0.322,0.21c-0.294,0.602-0.7,1.12-1.288,1.652
		c-0.602,0.546-1.106,0.756-1.792,0.756c-0.28,0-0.616-0.042-0.91-0.126c-0.546-0.154-0.994-0.378-2.618-1.344
		c-1.47-0.882-2.52-1.302-3.234-1.302c-0.616,0-1.456,0.574-2.24,1.526L62.341,5.67z"/>
	<path d="M89.543,7.63c0,1.68-1.358,2.744-3.5,2.744c-2.072,0-3.388-1.008-3.388-2.59c0-0.756,0.392-1.526,1.05-2.03
		c0.322-0.238,0.714-0.434,1.344-0.686c-0.63-0.308-0.952-0.518-1.246-0.742c-0.518-0.434-0.742-0.938-0.742-1.694
		c0-0.616,0.196-1.218,0.532-1.624C84.111,0.392,85.105,0,86.184,0c1.106,0,2.058,0.42,2.562,1.134
		c0.266,0.378,0.392,0.812,0.392,1.358c0,0.686-0.252,1.19-0.812,1.638c-0.392,0.308-0.756,0.49-1.274,0.63
		C88.746,5.432,89.543,6.356,89.543,7.63z M84.518,5.866c-0.532,0.462-0.812,1.106-0.812,1.82c0,1.386,0.98,2.31,2.436,2.31
		c1.358,0,2.282-0.84,2.282-2.072c0-0.672-0.294-1.148-1.036-1.666c-0.266-0.196-0.7-0.42-1.288-0.7
		c-0.126-0.056-0.56-0.252-0.56-0.252C85.035,5.474,84.812,5.6,84.518,5.866z M88.129,2.52c0-1.344-0.77-2.142-2.086-2.142
		c-1.176,0-1.932,0.728-1.932,1.862c0,0.742,0.308,1.19,1.162,1.68c0.182,0.098,0.182,0.098,0.994,0.462
		c0.098,0.056,0.238,0.112,0.406,0.21C87.667,4.158,88.129,3.5,88.129,2.52z"/>
	<path d="M97.355,10.15c0.168-1.134,0.462-1.932,1.036-2.73c0.546-0.784,1.134-1.344,2.926-2.8c0.574-0.462,0.868-0.77,1.064-1.092
		c0.21-0.364,0.308-0.756,0.308-1.176c0-1.176-0.77-1.974-1.904-1.974c-0.826,0-1.428,0.392-1.666,1.092
		c-0.084,0.28-0.112,0.476-0.14,1.022c-0.028,0.476-0.182,0.602-0.672,0.602c-0.518,0-0.714-0.168-0.714-0.574
		c0-1.442,1.4-2.52,3.276-2.52c1.176,0,2.156,0.378,2.688,1.05c0.308,0.406,0.448,0.84,0.448,1.484c0,1.162-0.518,1.876-2.072,2.828
		c-1.75,1.078-2.128,1.358-2.744,1.96c-0.616,0.602-0.896,1.036-1.148,1.778h4.046c1.008,0,1.358-0.308,1.638-1.484l0.42,0.098
		l-0.378,2.436H97.355z"/>
	<path d="M0,37.716c0.896-2.856,1.428-5.908,1.512-8.848c2.1,0.476,2.492,0.588,2.492,0.84c0,0.224-0.28,0.364-0.868,0.448
		c-0.7,3.304-1.372,5.18-2.772,7.672L0,37.716z M5.992,15.316c-1.848,2.66-1.96,2.8-3.052,4.06c0.952,0.756,1.204,1.148,1.204,1.792
		c0,0.756-0.364,1.54-0.7,1.54c-0.196,0-0.308-0.14-0.448-0.504c-0.112-0.364-0.42-0.98-0.812-1.624
		c-0.588-1.008-0.98-1.568-1.904-2.52l0.196-0.336c1.036,0.616,1.4,0.868,2.016,1.316c0.784-1.624,1.568-3.752,1.96-5.32
		c2.268,0.756,2.716,0.952,2.716,1.204s-0.392,0.392-1.12,0.392H5.992z M4.256,26.656c-1.008,0.224-1.428,0.308-2.688,0.56
		c-0.224,0.84-0.308,1.008-0.504,1.008c-0.224,0-0.364-0.392-0.728-2.408c0.28,0.028,0.504,0.028,0.644,0.028
		c0.364,0,0.504,0,1.568-0.084c1.344-2.016,1.624-2.492,2.268-3.668c0.84-1.568,1.736-3.472,2.296-4.956
		c2.24,0.952,2.268,0.98,2.268,1.176c0,0.252-0.28,0.364-0.896,0.42c-1.792,2.688-3.668,5.264-5.152,6.972
		c2.24-0.196,2.492-0.224,4.312-0.448c-0.308-1.092-0.476-1.568-1.064-2.66l0.392-0.168c0.644,0.616,0.868,0.868,1.568,1.736
		c0.616,0.784,0.784,1.12,0.784,1.624c0,0.392-0.196,1.092-0.42,1.54c-0.168,0.28-0.336,0.42-0.532,0.42
		c-0.252,0-0.308-0.14-0.42-0.98c-0.056-0.336-0.112-0.588-0.196-1.036c-0.7,0.196-1.148,0.308-1.904,0.504v6.412
		c0,1.568,0,1.568,0.028,3.416c0.028,1.4,0.028,1.484,0.028,2.688c0,0.196-0.056,0.28-0.168,0.336
		c-0.168,0.084-0.84,0.196-1.316,0.196c-0.168,0-0.252-0.056-0.252-0.224c0.084-4.956,0.084-5.068,0.084-6.412V26.656z
		 M6.944,28.476c1.708,2.268,2.296,3.332,2.296,4.2c0,0.924-0.504,2.044-0.924,2.044c-0.28,0-0.392-0.252-0.476-1.036
		c-0.14-1.68-0.336-2.38-1.26-5.068L6.944,28.476z M11.676,24.444c-1.54,0-1.708,0-2.52,0.14l-0.168-0.952
		C9.912,23.8,9.94,23.8,11.676,23.8h2.576c0.812-2.156,1.288-3.864,1.484-5.264c1.792,0.532,2.24,0.728,2.24,0.924
		c0,0.224-0.196,0.336-0.812,0.504c-0.812,1.652-0.868,1.736-2.268,3.836h4.256c-0.14-2.1-0.224-4.06-0.252-7.588
		c0-1.316,0-1.68-0.056-2.688c2.828,0.504,2.968,0.532,2.968,0.812c0,0.224-0.252,0.364-1.204,0.672
		c-0.028,3.08-0.028,3.08-0.028,3.752c0,1.988,0.028,3.444,0.112,5.04h1.792c0.672-0.868,0.868-1.12,1.484-1.876
		c1.008,0.868,1.316,1.148,2.212,2.072c0.084,0.084,0.112,0.196,0.112,0.252c0,0.112-0.112,0.196-0.308,0.196H20.72
		c0.168,2.52,0.42,4.06,0.924,5.908c0.728-1.596,1.26-3.108,1.568-4.508c0.56,0.196,0.98,0.336,1.26,0.42
		c1.12,0.364,1.344,0.476,1.344,0.7c0,0.252-0.308,0.364-1.176,0.448c-0.924,2.212-1.428,3.22-2.408,4.704
		c0.476,1.12,0.896,1.764,2.156,3.332c0.7-1.876,0.924-2.576,1.624-4.956l0.364,0.112l-0.616,4.452
		c-0.14,0.868-0.14,0.868-0.14,1.26c0,0.532,0.028,0.588,0.448,1.232c0.112,0.168,0.168,0.364,0.168,0.56
		c0,0.42-0.28,0.756-0.616,0.756c-0.392,0-0.98-0.364-1.484-0.896c-1.12-1.204-2.184-2.8-2.912-4.396
		c-0.812,1.064-1.456,1.764-2.436,2.604c-1.512,1.316-2.52,1.96-4.312,2.8l-0.168-0.364c3.024-2.156,4.788-3.976,6.356-6.524
		c-0.784-2.212-1.176-4.312-1.456-7.644H11.676z M15.568,17.584c0.504-0.588,0.644-0.756,1.148-1.316
		c0.84,0.644,1.092,0.868,1.876,1.568c0.084,0.084,0.112,0.168,0.112,0.252s-0.112,0.14-0.252,0.14h-6.916
		c-0.84,0-1.176,0.028-1.708,0.112l-0.196-0.952c0.644,0.14,1.12,0.196,1.904,0.196h1.26v-1.428c0-0.98,0-1.316-0.056-2.296
		c0.532,0.084,0.952,0.14,1.204,0.168c1.12,0.14,1.4,0.224,1.4,0.42s-0.168,0.308-0.868,0.56v2.576H15.568z M15.512,26.936
		c0.364-0.448,0.504-0.56,0.84-0.98c0.616,0.392,0.812,0.532,1.4,0.952c0.308,0.224,0.392,0.364,0.392,0.476
		c0,0.196-0.28,0.364-0.952,0.588c0,0.588,0,0.924,0,1.316c0,1.596,0.028,2.52,0.112,6.272c0,0.168-0.028,0.252-0.14,0.308
		c-0.168,0.084-0.7,0.168-1.12,0.168c-0.224,0-0.308-0.084-0.308-0.336v-0.448h-3.92v1.092c0,0.42-0.252,0.532-1.316,0.532
		c-0.224,0-0.308-0.084-0.308-0.308c0.084-4.564,0.084-4.564,0.084-6.02c0-2.464-0.028-3.444-0.084-4.704
		c0.868,0.42,1.148,0.56,2.016,1.092H15.512z M10.78,18.676c1.596,1.708,2.044,2.352,2.044,3.108s-0.56,1.68-1.008,1.68
		c-0.224,0-0.364-0.252-0.42-0.868c-0.14-1.344-0.168-1.484-0.924-3.78L10.78,18.676z M15.736,27.58h-3.92v3.024h3.92V27.58z
		 M11.816,31.248v3.36h3.92v-3.36H11.816z M21.672,15.792c2.296,1.68,3.108,2.548,3.108,3.332c0,0.364-0.28,1.148-0.532,1.54
		c-0.168,0.252-0.336,0.392-0.532,0.392c-0.252,0-0.28-0.084-0.532-1.092c-0.308-1.204-0.812-2.352-1.764-3.892L21.672,15.792z"/>
	<path d="M32.536,37.856c0,0.252-0.056,0.336-0.28,0.42c-0.168,0.056-0.784,0.112-1.148,0.112c-0.392,0-0.504-0.084-0.504-0.448
		c0.056-2.38,0.084-8.008,0.084-14.812c0-3.164-0.056-6.972-0.14-8.12c1.036,0.448,1.344,0.588,2.352,1.204h16.744
		c0.532-0.616,0.7-0.812,1.26-1.372c0.812,0.588,1.064,0.784,1.848,1.372c0.168,0.14,0.224,0.252,0.224,0.392
		c0,0.224-0.14,0.336-1.064,0.812l-0.028,5.796c0,5.684,0.084,10.64,0.224,14.56c-0.084,0.392-0.448,0.532-1.456,0.532
		c-0.476,0-0.644-0.084-0.672-0.42v-2.128H32.536V37.856z M40.32,25.116v-8.26h-7.784v8.26H40.32z M40.32,25.788h-7.784v9.324h7.784
		V25.788z M49.98,16.856h-7.84v8.26h7.84V16.856z M42.14,25.788v9.324h7.84v-9.324H42.14z"/>
	<path d="M55.748,27.524c1.904-2.884,2.8-4.564,4.004-7.448c0.728-1.82,1.512-3.948,1.876-5.264c0.14-0.504,0.196-0.756,0.308-1.484
		c2.408,0.672,3.052,0.924,3.052,1.176c0,0.224-0.336,0.392-1.064,0.56c-1.428,3.164-2.128,4.508-3.416,6.72
		c0.476,0.056,1.288,0.252,1.708,0.392c0.224,0.056,0.364,0.168,0.364,0.28c0,0.14-0.14,0.224-0.896,0.56v5.88
		c0,0.952,0,2.184-0.028,3.612c0,0.532,0,0.924,0,1.176c0,0.896,0,1.176,0.084,4.62c0,0.056,0,0.112,0,0.14
		c0,0.168-0.084,0.28-0.28,0.336c-0.252,0.084-1.064,0.168-1.456,0.168c-0.28,0-0.392-0.14-0.42-0.448
		c0.028-0.728,0.056-3.92,0.14-9.604v-5.852c-1.456,2.268-2.072,3.08-3.64,4.844L55.748,27.524z M63.42,18.844
		c1.54,0.28,2.156,0.364,3.108,0.364h11.144c0.7-0.84,0.924-1.092,1.596-1.96c1.316,0.896,1.708,1.204,2.884,2.156
		c0.112,0.084,0.224,0.224,0.224,0.28c0,0.112-0.112,0.224-0.224,0.224H66.556c-1.428,0-1.792,0.028-2.828,0.14L63.42,18.844z
		 M65.044,26.6c1.008,0.196,1.736,0.28,2.912,0.28h8.512c0.7-0.812,0.896-1.064,1.596-1.82c1.12,0.868,1.12,0.868,2.576,1.988
		c0.112,0.112,0.168,0.224,0.168,0.28c0,0.112-0.14,0.196-0.336,0.196H67.956c-1.008,0-1.54,0.028-2.66,0.168L65.044,26.6z
		 M65.072,22.736c0.812,0.168,2.016,0.28,2.94,0.28h8.456c0.644-0.84,0.84-1.092,1.512-1.848c1.176,0.896,1.54,1.148,2.632,2.016
		c0.084,0.112,0.14,0.196,0.14,0.224c0,0.112-0.14,0.252-0.28,0.252h-12.46c-1.008,0-1.596,0.028-2.744,0.14L65.072,22.736z
		 M67.62,38.192c0,0.056,0,0.084,0,0.112c0,0.14-0.028,0.224-0.14,0.28c-0.112,0.056-0.98,0.168-1.456,0.168
		c-0.252,0-0.364-0.112-0.364-0.364c0.056-3.052,0.084-5.124,0.084-6.244c0-1.372,0-1.764-0.084-2.912
		c1.036,0.532,1.344,0.7,2.352,1.372H77c0.504-0.532,0.672-0.7,1.12-1.26c0.812,0.56,1.036,0.728,1.708,1.26
		c0.056,0.056,0.112,0.112,0.14,0.168c0.112,0.084,0.168,0.196,0.168,0.252c-0.028,0.224-0.308,0.42-0.952,0.644
		c0,4.116,0,4.284,0.084,6.608c0,0.028,0,0.056,0,0.084c0,0.14-0.056,0.252-0.196,0.336c-0.112,0.056-1.036,0.168-1.4,0.168
		c-0.224,0-0.336-0.112-0.364-0.364v-1.204H67.62V38.192z M65.744,15.176c0.84,0.14,1.988,0.252,2.8,0.252h7.532
		c0.7-0.84,0.924-1.064,1.596-1.848c1.148,0.868,1.456,1.12,2.492,2.044c0.112,0.112,0.196,0.224,0.196,0.28
		c0,0.084-0.084,0.168-0.196,0.168h-11.62c-1.008,0-1.512,0.028-2.548,0.168L65.744,15.176z M67.62,36.652h9.688v-5.404H67.62
		V36.652z"/>
	<path d="M95.676,27.188c0.812,1.876,2.016,3.5,3.808,5.068c1.904-1.764,3.22-3.304,3.808-4.508c0.532,0.224,0.98,0.392,1.232,0.504
		c0.84,0.392,1.456,0.672,1.484,0.672c0.224,0.112,0.392,0.252,0.392,0.392c0,0.168-0.308,0.308-0.7,0.308
		c-0.28,0-0.644,0-1.036-0.028c-0.308,0.196-0.308,0.196-1.848,1.232c-0.56,0.392-1.26,0.812-2.884,1.792
		c0.84,0.644,1.484,1.064,2.604,1.596c2.296,1.12,4.452,1.68,7.196,1.96v0.42c-0.588,0.084-0.896,0.224-1.316,0.56
		c-0.42,0.392-0.616,0.7-0.84,1.344c-4.788-1.736-7.42-3.416-9.66-6.132c-1.232-1.484-1.932-2.744-2.94-5.18H91.7v7.7
		c2.688-0.616,3.752-0.896,6.16-1.624l0.14,0.42c-3.276,1.456-5.6,2.352-11.368,4.368c-0.084,0.924-0.196,1.316-0.42,1.316
		c-0.112,0-0.308-0.14-0.392-0.336c-0.168-0.336-0.336-0.812-0.504-1.456c-0.084-0.336-0.224-0.84-0.42-1.484
		c0.98,0,1.708-0.112,4.872-0.784v-8.12h-3.36c-0.448,0-1.484,0.112-1.932,0.224l-0.252-1.148c0.84,0.196,1.512,0.28,2.212,0.28
		h3.332v-7.616c0-1.652-0.028-2.968-0.112-4.704c1.148,0.42,1.484,0.588,2.548,1.204h10.64c0.98-1.12,0.98-1.12,1.624-1.876
		c1.12,0.924,1.456,1.232,2.604,2.212c0.028,0.056,0.056,0.084,0.056,0.112c0,0.112-0.112,0.196-0.224,0.196H91.7v3.052h9.968
		c0.616-0.7,0.616-0.7,1.456-1.652c0.98,0.756,1.288,1.008,2.24,1.96c0.056,0.056,0.084,0.112,0.084,0.14
		c0,0.084-0.112,0.196-0.252,0.196H91.7v2.968h9.716c0.728-0.84,0.952-1.092,1.596-1.848c1.008,0.896,1.316,1.176,2.324,2.156
		c0.056,0.056,0.084,0.112,0.084,0.168c0,0.084-0.112,0.168-0.224,0.168H91.7v3.164h13.692c0.812-0.84,1.036-1.12,1.792-2.016
		c1.12,0.98,1.484,1.288,2.548,2.324c0.028,0.056,0.028,0.084,0.028,0.112c0,0.056-0.112,0.224-0.168,0.224H95.676z"/>
</g>
<g>
	<path d="M3.243,44.744c0.56,0.504,1.05,0.714,1.666,0.714c0.392,0,0.756-0.042,1.4-0.182c0.014-0.406,0.014-1.036,0.014-1.288
		c0-1.47-0.168-1.764-1.134-1.932c0.196-0.154,0.308-0.196,0.602-0.196c0.476,0,1.064,0.14,1.442,0.35
		c0.182,0.098,0.308,0.294,0.308,0.448c0,0.084,0,0.084-0.154,0.364c-0.224,0.406-0.364,1.064-0.434,2.086
		c0.742-0.252,1.078-0.434,1.526-0.812c0.112-0.084,0.252-0.14,0.336-0.14c0.126,0,0.364,0.056,0.532,0.126
		c0.14,0.056,0.238,0.182,0.238,0.308c0,0.196-0.126,0.308-0.63,0.546c-0.63,0.294-1.288,0.518-2.044,0.686
		c-0.014,0.196-0.014,0.196-0.042,0.7c-0.014,0.378-0.042,0.994-0.056,1.834c1.568-0.56,2.576-0.77,3.71-0.77
		c1.918,0,3.122,0.91,3.122,2.394c0,1.372-1.05,2.436-2.394,2.436c-1.288,0-2.212-0.854-2.702-2.478l0.21-0.07
		c0.336,0.644,0.546,0.938,0.84,1.218c0.392,0.364,0.826,0.532,1.33,0.532c1.022,0,1.75-0.798,1.75-1.918
		c0-1.078-0.728-1.666-2.072-1.666c-1.106,0-2.436,0.35-3.794,1.008c0,1.484,0,1.484,0.014,1.904
		c0.014,0.266,0.014,0.42,0.014,0.532c0,0.336-0.056,0.602-0.182,0.826c-0.168,0.322-0.434,0.518-0.672,0.518
		c-0.196,0-0.196,0-1.05-0.756c-0.294-0.238-0.7-0.518-0.938-0.63c-0.308-0.14-0.462-0.35-0.462-0.588
		c0-0.224,0.14-0.504,0.42-0.784c0.518-0.532,0.994-0.84,2.226-1.442c0.014-0.196,0.014-0.406,0.028-0.672
		c0.028-0.63,0.028-0.63,0.07-2.016c-0.434,0.07-0.756,0.098-1.092,0.098c-0.896,0-1.498-0.322-2.086-1.148L3.243,44.744z
		 M4.782,50.414c-0.28,0.294-0.42,0.518-0.42,0.672c0,0.14,0.182,0.294,0.56,0.434c0.308,0.126,0.686,0.224,0.868,0.224
		c0.168,0,0.238-0.098,0.252-0.35c0.07-1.26,0.098-1.946,0.098-2.03C5.482,49.77,5.132,50.036,4.782,50.414z M11.026,43.33
		c0.854,0.042,1.484,0.196,2.058,0.504c0.616,0.336,0.98,0.798,0.98,1.232c0,0.252-0.168,0.406-0.42,0.406
		c-0.028,0-0.098,0-0.21-0.028c-0.196-0.028-0.252-0.028-0.294-0.028c-0.21,0-0.546,0.07-1.722,0.378l-0.084-0.14
		c0.84-0.434,1.33-0.728,1.526-0.896c-0.224-0.392-0.448-0.616-0.882-0.868c-0.28-0.154-0.504-0.238-0.966-0.364L11.026,43.33z"/>
	<path d="M21.727,44.604c0.574,0.588,0.938,0.77,1.54,0.77c0.546,0,1.134-0.084,1.778-0.266c0.28-0.91,0.476-1.89,0.476-2.38
		c0-0.42-0.21-0.602-0.994-0.868c0.182-0.098,0.252-0.126,0.434-0.126c0.322,0,0.784,0.098,1.204,0.266
		c0.42,0.154,0.63,0.35,0.63,0.56c0,0.098,0,0.098-0.168,0.336c-0.182,0.266-0.49,1.008-0.84,2.002
		c0.784-0.28,1.288-0.546,1.624-0.854c0.224-0.21,0.28-0.238,0.392-0.238c0.182,0,0.518,0.07,0.742,0.154
		c0.154,0.056,0.224,0.14,0.224,0.252c0,0.238-0.224,0.42-0.812,0.672c-0.63,0.294-1.568,0.602-2.45,0.826
		c-0.168,0.476-0.168,0.476-0.588,1.778c-0.28,0.84-0.28,0.84-1.05,3.122c-0.56,1.666-0.742,2.016-1.036,2.016
		c-0.14,0-0.238-0.084-0.322-0.28c-0.112-0.224-0.196-0.574-0.196-0.812c0-0.224,0.014-0.266,0.308-0.686
		c0.7-1.022,1.246-2.24,2.198-5.012c-0.532,0.098-0.938,0.14-1.344,0.14c-0.854,0-1.4-0.364-1.918-1.26L21.727,44.604z
		 M27.313,49.434c-0.014,0.21-0.014,0.378-0.014,0.434c0,0.798,0.378,1.4,1.064,1.694c0.378,0.168,0.952,0.266,1.498,0.266
		c0.574,0,0.896-0.042,1.344-0.21c0.098-0.042,0.182-0.056,0.238-0.056c0.154,0,0.476,0.154,0.714,0.336
		c0.168,0.14,0.252,0.266,0.252,0.392c0,0.308-0.546,0.462-1.652,0.462c-1.078,0-1.974-0.154-2.59-0.448
		c-0.756-0.364-1.19-1.092-1.19-2.03c0-0.308,0.028-0.546,0.126-0.882L27.313,49.434z M27.69,46.844
		c1.008-0.616,2.156-0.952,3.248-0.952c0.294,0,0.658,0.098,0.882,0.252c0.14,0.084,0.224,0.238,0.224,0.392
		c0,0.238-0.126,0.308-0.532,0.336c-0.518,0.014-0.686,0.07-1.078,0.28c-0.28,0.154-0.294,0.154-0.77,0.476
		c-0.266,0.168-0.266,0.168-0.49,0.294l-0.084-0.126c0.168-0.168,0.168-0.168,0.672-0.63c0.126-0.112,0.252-0.238,0.686-0.658
		c-0.924,0-1.666,0.154-2.674,0.518L27.69,46.844z M29.678,42.224c0.77,0.238,1.484,0.574,1.89,0.882
		c0.308,0.224,0.406,0.406,0.406,0.7c0,0.378-0.168,0.7-0.35,0.7c-0.112,0-0.21-0.084-0.322-0.266
		c-0.49-0.798-0.882-1.218-1.708-1.848L29.678,42.224z M30.882,41.258c1.05,0.266,1.624,0.476,2.016,0.742
		c0.28,0.21,0.378,0.392,0.378,0.728c0,0.35-0.126,0.616-0.294,0.616c-0.098,0-0.182-0.07-0.322-0.28
		c-0.476-0.644-1.064-1.176-1.862-1.624L30.882,41.258z"/>
	<path d="M45.909,52.332c1.512-0.448,2.478-1.022,3.276-1.946c0.826-0.938,1.246-2.086,1.246-3.374c0-1.358-0.546-2.436-1.582-3.094
		c-0.616-0.406-1.54-0.644-2.422-0.644c-0.168,0-0.266,0-0.49,0.028c0.336,0.49,0.434,0.756,0.434,1.162
		c0,1.092-0.784,3.136-1.848,4.844c-0.882,1.4-1.568,2.086-2.086,2.086c-0.238,0-0.462-0.112-0.616-0.294
		c-0.126-0.168-0.154-0.224-0.392-0.896c-0.126-0.364-0.21-0.532-0.616-1.316c-0.224-0.448-0.322-0.826-0.322-1.274
		c0-0.882,0.476-1.918,1.26-2.772c1.134-1.204,2.982-1.96,4.816-1.96c1.414,0,2.716,0.462,3.612,1.288
		c0.896,0.826,1.344,1.932,1.344,3.29c0,1.75-1.022,3.304-2.786,4.242c-0.812,0.434-1.54,0.658-2.73,0.868L45.909,52.332z
		 M41.302,47.978c0,0.672,0.21,1.358,0.56,1.848c0.196,0.252,0.378,0.406,0.532,0.406c0.308,0,0.98-0.756,1.666-1.848
		c1.036-1.652,1.778-3.458,1.778-4.326c0-0.21-0.042-0.35-0.196-0.7C43.207,43.792,41.302,45.822,41.302,47.978z"/>
	<path d="M63.398,41.776c0.546,0.896,1.092,1.302,2.282,1.722c0.294,0.112,0.434,0.21,0.658,0.462
		c0.182,0.21,0.266,0.392,0.266,0.56c0,0.182-0.154,0.336-0.35,0.336c-0.07,0-0.14-0.014-0.462-0.126
		c-0.14-0.028-0.35-0.07-0.448-0.07c-0.35,0-0.84,0.154-1.246,0.392c-0.434,0.252-0.672,0.602-0.672,0.966
		c0,0.532,0.336,0.994,1.61,2.226c0.63-0.154,1.008-0.196,1.498-0.196c1.05,0,2.044,0.28,2.744,0.77
		c0.686,0.476,1.162,1.218,1.162,1.806c0,0.448-0.238,0.728-0.63,0.728c-0.112,0-0.14-0.014-0.392-0.084
		c-0.182-0.07-0.336-0.084-0.602-0.084c-0.056,0-0.56,0.042-1.554,0.112l-0.028-0.154c0.938-0.322,1.68-0.616,2.016-0.798
		c-0.112-0.588-0.378-0.994-0.882-1.372c-0.504-0.378-1.246-0.602-1.96-0.602c-0.35,0-0.616,0.042-1.134,0.154
		c0.742,0.798,0.994,1.316,0.994,1.974c0,0.504-0.28,1.05-0.686,1.358c-0.322,0.238-0.756,0.364-1.232,0.364
		c-0.91,0-1.932-0.476-2.94-1.358c-0.336,0.322-0.574,0.588-0.84,0.952c-0.238,0.336-0.336,0.406-0.518,0.406
		c-0.588,0-1.358-1.078-1.358-1.89c0-0.224,0.042-0.308,0.182-0.448c0.098,0.406,0.182,0.616,0.336,0.798
		c0.14,0.182,0.322,0.308,0.434,0.308c0.168,0,0.378-0.126,1.316-0.728c1.288-0.84,2.45-1.456,3.416-1.834
		c-0.882-1.036-1.246-1.722-1.246-2.338c0-0.756,0.476-1.358,1.666-2.072c-0.952-0.77-1.134-1.022-1.582-2.17L63.398,41.776z
		 M61.606,50.68c0.84,0.56,1.708,0.868,2.45,0.868c0.77,0,1.218-0.434,1.218-1.176c0-0.462-0.21-0.952-0.686-1.624
		C63.371,49.238,62.601,49.742,61.606,50.68z M67.165,42.644c0.756,0.308,1.442,0.728,1.778,1.092
		c0.224,0.238,0.308,0.42,0.308,0.658c0,0.364-0.168,0.686-0.35,0.686c-0.112,0-0.182-0.084-0.28-0.28
		c-0.378-0.77-0.854-1.386-1.554-2.016L67.165,42.644z M68.438,41.86c0.714,0.21,1.302,0.49,1.722,0.798
		c0.308,0.238,0.434,0.448,0.434,0.728c0,0.434-0.14,0.742-0.322,0.742c-0.112,0-0.196-0.084-0.322-0.336
		c-0.35-0.658-0.84-1.232-1.596-1.806L68.438,41.86z"/>
	<path d="M78.145,43.806c0.672,0.63,1.064,0.812,1.764,0.812c0.364,0,0.742-0.056,1.274-0.168c0.35-0.91,0.504-1.498,0.504-1.988
		c0-0.462-0.224-0.742-0.896-1.078c0.154-0.084,0.224-0.098,0.336-0.098c0.28,0,0.714,0.126,1.12,0.322
		c0.476,0.238,0.658,0.392,0.658,0.588c0,0.112-0.028,0.196-0.14,0.364c-0.056,0.112-0.35,0.686-0.854,1.722
		c1.036-0.364,1.162-0.434,1.554-0.77c0.112-0.098,0.154-0.112,0.294-0.112c0.546,0,0.952,0.182,0.952,0.42
		c0,0.364-0.868,0.714-3.094,1.232c-0.126,0.28-0.364,0.854-0.742,1.694c-0.42,0.966-1.498,3.318-1.624,3.556
		c-0.21,0.378-0.336,0.504-0.504,0.504c-0.238,0-0.434-0.434-0.434-0.994c0-0.28,0.028-0.364,0.154-0.504
		c0.308-0.336,0.476-0.546,0.672-0.84c0.686-1.022,1.19-1.974,1.75-3.29c-0.308,0.042-0.434,0.056-0.658,0.056
		c-0.504,0-0.882-0.084-1.232-0.294c-0.42-0.238-0.742-0.574-1.022-1.022L78.145,43.806z M85.55,44.59
		c0.966,0.084,1.75,0.336,2.394,0.77c0.546,0.35,0.882,0.77,0.882,1.092c0,0.238-0.14,0.406-0.364,0.406
		c-0.112,0-0.196-0.028-0.322-0.112c-0.392-0.238-0.658-0.294-1.372-0.294c-1.12,0-1.47,0.308-1.47,1.274
		c0,0.378,0.07,0.98,0.28,2.408c0.854,0.252,1.582,0.588,1.988,0.91c0.378,0.294,0.56,0.658,0.56,1.106
		c0,0.28-0.112,0.476-0.28,0.476c-0.14,0-0.196-0.042-0.49-0.364c-0.504-0.546-0.966-0.882-1.694-1.232c0,0.112,0,0.21,0,0.266
		c0,0.56-0.112,0.882-0.392,1.19c-0.378,0.378-1.036,0.602-1.82,0.602c-1.26,0-2.128-0.602-2.128-1.484
		c0-0.98,1.064-1.666,2.618-1.666c0.322,0,0.476,0.014,0.84,0.07c-0.042-1.106-0.042-1.218-0.042-1.386
		c0-1.148,0.112-1.582,0.49-2.002c0.28-0.294,0.672-0.49,1.33-0.658c0.21-0.056,0.238-0.07,0.756-0.182
		c-0.378-0.406-0.812-0.63-1.806-0.966L85.55,44.59z M84.794,50.722c-0.434-0.126-0.756-0.168-1.204-0.168
		c-1.19,0-1.918,0.406-1.918,1.064c0,0.518,0.532,0.826,1.4,0.826c1.134,0,1.722-0.462,1.722-1.344V50.722z"/>
	<path d="M99.387,45.808c-0.98,0.322-1.428,0.504-1.82,0.728c-0.21,0.126-0.294,0.154-0.406,0.154c-0.154,0-0.434-0.182-0.616-0.42
		c-0.252-0.322-0.462-0.812-0.462-1.064c0-0.07,0.028-0.168,0.084-0.308c0.294,0.574,0.546,0.77,1.064,0.77
		c0.308,0,1.344-0.21,2.38-0.49c0.322-0.798,0.574-1.82,0.574-2.296c0-0.434-0.28-0.686-1.078-0.938
		c0.168-0.126,0.252-0.154,0.406-0.154c0.21,0,0.574,0.07,0.952,0.182c0.63,0.182,0.98,0.448,0.98,0.742
		c0,0.098-0.028,0.154-0.196,0.406c-0.182,0.266-0.49,0.924-0.896,1.89c0.616-0.126,0.868-0.154,1.218-0.154
		c1.204,0,1.778,0.714,1.778,2.184c0,1.792-0.714,4.116-1.526,5.012c-0.35,0.364-0.896,0.63-1.344,0.63
		c-0.238,0-0.35-0.098-0.378-0.322c-0.042-0.392-0.07-0.42-1.554-1.638l0.126-0.168c1.064,0.602,1.876,0.952,2.17,0.952
		c0.308,0,0.546-0.294,0.91-1.176c0.49-1.148,0.826-2.688,0.826-3.752c0-0.588-0.126-0.966-0.378-1.134
		c-0.14-0.098-0.322-0.14-0.63-0.14c-0.392,0-0.658,0.056-1.456,0.28c-0.196,0.49-0.196,0.49-0.812,1.904
		c-0.07,0.182-0.35,0.826-0.826,1.96c-0.56,1.316-1.022,2.324-1.246,2.716c-0.098,0.182-0.21,0.266-0.336,0.266
		c-0.252,0-0.406-0.364-0.406-0.966c0-0.35,0.042-0.462,0.322-0.784c0.266-0.294,0.644-0.896,1.036-1.652
		c0.532-1.022,0.532-1.022,1.12-2.31L99.387,45.808z M104.847,44.912c1.092,0.322,1.946,0.882,2.562,1.68
		c0.532,0.686,0.798,1.358,0.798,1.974c0,0.49-0.21,0.77-0.56,0.77c-0.112,0-0.168-0.014-0.322-0.098
		c-0.238-0.14-0.308-0.154-0.574-0.154c-0.49,0-0.56,0-1.75,0.126l-0.056-0.182c1.47-0.448,1.694-0.532,2.142-0.714
		c-0.056-0.476-0.182-0.882-0.434-1.344c-0.448-0.868-0.994-1.4-1.918-1.862L104.847,44.912z M105.449,42.756
		c0.434,0.154,0.966,0.434,1.428,0.742c0.504,0.336,0.672,0.574,0.672,0.938c0,0.378-0.154,0.672-0.336,0.672
		c-0.14,0-0.224-0.098-0.42-0.462c-0.266-0.518-0.91-1.274-1.456-1.722L105.449,42.756z M106.61,41.832
		c0.476,0.14,0.938,0.336,1.4,0.602c0.504,0.28,0.742,0.56,0.742,0.868c0,0.378-0.126,0.672-0.28,0.672
		c-0.112,0-0.21-0.098-0.406-0.378c-0.378-0.588-0.784-0.994-1.568-1.61L106.61,41.832z"/>
</g>
</svg>
