<?xml version="1.0" encoding="utf-8"?>
<!-- Generator: Adobe Illustrator 12.0.0, SVG Export Plug-In . SVG Version: 6.00 Build 51448)  -->
<!DOCTYPE svg PUBLIC "-//W3C//DTD SVG 1.1//EN" "http://www.w3.org/Graphics/SVG/1.1/DTD/svg11.dtd" [
	<!ENTITY ns_svg "http://www.w3.org/2000/svg">
	<!ENTITY ns_xlink "http://www.w3.org/1999/xlink">
]>
<svg  version="1.1" id="レイヤー_1" xmlns="&ns_svg;" xmlns:xlink="&ns_xlink;" width="65" height="54"
	 viewBox="0 0 65 54" overflow="visible" enable-background="new 0 0 65 54" xml:space="preserve">
<g>
	<path d="M0,9.814c0.896-0.56,1.722-1.232,2.66-2.128c1.4-1.33,2.436-2.562,3.43-4.102C4.41,3.85,3.416,4.074,2.632,4.396
		C2.408,4.48,2.31,4.508,2.184,4.508c-0.308,0-0.7-0.28-1.064-0.756C0.868,3.43,0.714,3.122,0.714,2.968
		c0-0.056,0.014-0.098,0.056-0.168c0.448,0.518,0.868,0.742,1.442,0.742s2.926-0.294,4.41-0.546c-0.014-1.232-0.084-1.862-0.21-2.1
		C6.258,0.602,5.838,0.35,5.348,0.252C5.46,0.112,5.516,0.098,5.81,0.098c0.434,0,1.134,0.168,1.554,0.392
		C7.672,0.644,7.77,0.756,7.77,0.994c0,0.098-0.014,0.168-0.084,0.308c-0.182,0.42-0.266,0.91-0.28,1.582
		C8.568,2.716,8.932,2.632,9.52,2.38c0.154-0.056,0.196-0.07,0.294-0.07c0.42,0,1.232,0.518,1.232,0.784
		c0,0.182-0.126,0.252-0.476,0.252c-0.084,0-0.238,0-0.49-0.014C9.744,3.318,9.478,3.304,9.31,3.304
		c-0.448,0-0.882,0.028-1.918,0.126c0,0.182-0.014,0.35-0.014,0.434c0,1.218,0.084,2.8,0.224,4.522
		C7.658,9.072,7.686,9.59,7.686,9.898c0,0.756-0.364,1.484-0.728,1.484c-0.168,0-0.308-0.098-0.392-0.294
		c-0.112-0.294-0.224-0.448-0.504-0.672c-0.336-0.266-0.336-0.266-1.96-1.162l0.07-0.182C5.446,9.464,6.104,9.646,6.734,9.8
		c0.014-0.28,0.028-0.966,0.028-1.736c0-0.35,0-0.784-0.014-1.316c-0.028-0.91-0.042-1.54-0.042-1.862c0-0.126,0-0.336,0.014-0.602
		C6.118,5.222,5.6,5.838,4.536,6.874C3.052,8.302,1.344,9.506,0.112,9.996L0,9.814z"/>
	<path d="M16.338,0.924c0.336,0,0.938,0.196,1.316,0.434c0.238,0.154,0.364,0.322,0.364,0.49c0,0.042-0.028,0.182-0.042,0.308
		c-0.07,0.322-0.126,1.414-0.126,2.408c0,0.182,0,0.504,0.014,1.064c0,0.182,0,0.322,0,0.476c0,0.448-0.014,0.602-0.042,0.756
		c-0.028,0.196-0.14,0.308-0.28,0.308c-0.182,0-0.364-0.168-0.532-0.476c-0.154-0.28-0.252-0.602-0.252-0.784
		c0-0.098,0.014-0.14,0.056-0.308c0.126-0.378,0.182-1.176,0.182-2.282c0-1.022-0.056-1.358-0.266-1.68
		c-0.168-0.28-0.294-0.364-0.826-0.602C16.072,0.938,16.128,0.924,16.338,0.924z M17.808,11.522c1.4-0.952,2.198-1.736,2.828-2.786
		c0.784-1.33,0.994-2.534,0.994-5.838c0-1.4-0.056-1.848-0.266-2.114C21.182,0.56,20.86,0.392,20.356,0.28
		c0.196-0.168,0.308-0.21,0.574-0.21c0.336,0,0.994,0.182,1.428,0.392c0.35,0.168,0.504,0.35,0.504,0.56
		c0,0.098,0,0.098-0.084,0.336c-0.112,0.336-0.182,1.26-0.238,2.996c-0.07,2.03-0.154,2.674-0.448,3.5
		c-0.588,1.61-2.086,3.01-4.172,3.85L17.808,11.522z"/>
	<path d="M29.988,2.324c0.56,0.476,0.588,0.49,0.84,0.588c0.21,0.07,0.518,0.112,0.826,0.112c0.658,0,2.184-0.224,3.094-0.448
		c0.616-0.154,1.12-0.35,1.47-0.56c0.098-0.056,0.154-0.084,0.21-0.084c0.126,0,0.434,0.112,0.644,0.238
		c0.28,0.154,0.42,0.322,0.42,0.49c0,0.182-0.224,0.294-0.868,0.42c-0.784,0.154-2.296,0.364-3.22,0.462
		c0.686,0.406,0.938,0.644,0.938,0.91c0,0.084-0.014,0.168-0.098,0.63C34.132,5.698,34.02,6.86,33.95,8.064
		c0.714-0.042,1.638-0.084,2.212-0.098c1.344-0.028,1.428-0.042,1.876-0.182C38.066,7.77,38.094,7.77,38.15,7.77
		c0.196,0,0.448,0.098,0.798,0.322c0.322,0.21,0.546,0.476,0.546,0.658c0,0.168-0.14,0.294-0.336,0.294
		c-0.084,0-0.112,0-1.008-0.168c-0.756-0.14-2.086-0.252-2.996-0.252c-1.148,0-2.394,0.14-3.528,0.392
		C30.8,9.198,30.52,9.296,29.82,9.604c-0.14,0.07-0.294,0.112-0.406,0.112c-0.392,0-0.896-0.378-1.232-0.924
		c-0.196-0.294-0.294-0.56-0.294-0.728c0-0.07,0.014-0.098,0.07-0.168c0.378,0.518,0.784,0.756,1.316,0.756
		c0.434,0,0.742-0.042,2.716-0.35c0.182-0.028,0.336-0.056,1.148-0.154c0.042-0.98,0.07-1.834,0.07-2.716
		c0-1.218-0.07-1.54-0.434-1.792c-0.434,0.014-0.658,0.028-0.91,0.028c-0.924,0-1.358-0.252-2.058-1.204L29.988,2.324z"/>
	<path d="M43.232,1.708c1.344,0.336,2.156,0.658,2.702,1.05C46.256,2.982,46.41,3.29,46.41,3.71c0,0.462-0.154,0.784-0.392,0.784
		c-0.154,0-0.224-0.07-0.602-0.56c-0.686-0.91-1.19-1.372-2.282-2.058L43.232,1.708z M53.186,2.506
		c-0.7,1.316-1.554,2.422-2.94,3.766c-1.288,1.246-2.156,1.946-3.934,3.192c-0.658,0.462-0.728,0.518-0.826,0.644
		c-0.224,0.266-0.308,0.336-0.49,0.336c-0.574,0-1.638-1.344-1.638-2.058c0-0.084,0.014-0.14,0.07-0.28
		c0.28,0.42,0.308,0.448,0.504,0.616c0.21,0.196,0.406,0.294,0.56,0.294c0.238,0,0.672-0.182,1.358-0.588
		c1.568-0.91,2.114-1.302,3.346-2.31c1.722-1.4,2.562-2.254,3.766-3.738L53.186,2.506z"/>
	<path d="M59.444,0c0.294,0,0.602,0.07,1.036,0.238c0.588,0.224,0.924,0.504,0.924,0.77c0,0.098,0,0.098-0.084,0.308
		c-0.168,0.378-0.252,1.428-0.252,3.052c1.05,0.098,2.436,0.434,3.262,0.784c0.63,0.294,0.868,0.574,0.868,1.078
		c0,0.406-0.126,0.644-0.336,0.644c-0.14,0-0.154,0-0.518-0.336c-0.924-0.854-2.002-1.442-3.29-1.82
		c0.014,0.882,0.014,1.316,0.014,1.736c0,0.364,0,0.532,0,0.84c0,0.63,0,0.84,0,1.204c0,0.42,0,0.42,0.028,1.596
		c0.014,0.294,0.014,0.532,0.014,0.742c0,0.266-0.014,0.392-0.07,0.476c-0.042,0.07-0.154,0.126-0.252,0.126
		c-0.336,0-0.896-0.756-0.896-1.218c0-0.14,0.014-0.224,0.07-0.392c0.21-0.672,0.294-2.492,0.294-6.062
		c0-1.008-0.042-2.03-0.098-2.408c-0.084-0.63-0.392-0.98-1.064-1.246C59.262,0.014,59.318,0,59.444,0z"/>
	<path d="M17.584,29.89c1.008,1.428,2.128,2.436,3.976,3.612c2.604,1.624,5.04,2.548,7.98,2.94v0.308
		c-1.092,0.336-1.54,0.812-1.82,2.016c-1.54-0.504-2.128-0.812-3.5-1.68c-3.164-2.016-4.984-3.78-7.084-6.888v3.08
		c0,1.176,0.056,3.976,0.14,5.964c0,0.224-0.056,0.28-0.252,0.336c-0.14,0.056-1.232,0.14-1.512,0.14
		c-0.28,0-0.392-0.112-0.42-0.364c0.028-0.7,0.112-2.688,0.196-5.936v-2.296c-1.792,1.988-3.36,3.332-5.768,4.928
		c-1.904,1.232-3.332,1.932-5.936,2.94L3.36,38.598c2.912-1.456,4.48-2.548,7.028-4.816c1.708-1.54,2.352-2.24,3.612-3.892H9.24
		v0.728c-0.028,0.224-0.084,0.28-0.252,0.336c-0.168,0.056-0.896,0.14-1.176,0.14c-0.336,0-0.504-0.112-0.504-0.308
		c0-0.028,0-0.112,0.028-0.196c0.112-2.044,0.14-3.808,0.14-7.224c0-1.176-0.056-2.156-0.168-3.416c0.98,0.42,1.26,0.56,2.128,1.12
		h5.852v-2.94H6.356c-0.756,0-1.288,0.028-2.408,0.168L3.724,17.15c1.428,0.252,2.212,0.336,2.996,0.336h8.568v-0.168
		c0-1.764-0.028-2.1-0.224-3.416c2.604,0.308,3.164,0.42,3.164,0.728c0,0.196-0.224,0.364-1.092,0.728v2.128h7.252
		c0.756-0.896,1.008-1.148,1.764-1.988c1.176,0.924,1.568,1.232,2.744,2.212c0.084,0.084,0.112,0.168,0.112,0.224
		c0,0.112-0.112,0.196-0.252,0.196h-11.62v2.94h5.936c0.476-0.504,0.644-0.672,1.12-1.12c0.756,0.476,0.98,0.644,1.596,1.12
		c0.224,0.14,0.308,0.252,0.308,0.392c0,0.224-0.224,0.392-1.008,0.728c0,4.564,0.028,4.956,0.084,8.288
		c0,0.224-0.056,0.336-0.252,0.392c-0.112,0.028-1.008,0.112-1.316,0.112c-0.252,0-0.336-0.084-0.336-0.364V29.89H17.584z
		 M15.288,21.714H9.24v3.416h6.048V21.714z M15.288,25.774H9.24v3.472h6.048V25.774z M23.268,21.714h-6.132v3.416h6.132V21.714z
		 M23.268,25.774h-6.132v3.472h6.132V25.774z"/>
	<path d="M38.976,20.538c1.512,0.588,2.268,0.952,3.108,1.54c0.952,0.616,1.176,0.952,1.176,1.596c0,0.784-0.448,1.708-0.84,1.708
		c-0.28,0-0.448-0.196-1.036-1.176c-1.064-1.708-1.512-2.268-2.716-3.388L38.976,20.538z M39.032,30.646
		c1.064,0.224,1.596,0.308,1.848,0.308c0.224,0,0.504-0.252,0.672-0.588c0.42-0.812,1.176-2.38,2.268-4.62
		c0.14-0.28,0.756-1.68,1.68-3.78c0.14-0.308,0.364-0.756,0.616-1.372l0.42,0.168L42.98,30.926c-0.224,0.672-0.336,1.26-0.336,1.736
		s0.028,0.56,0.476,1.96c0.196,0.672,0.336,1.4,0.336,1.904c0,0.616-0.196,1.176-0.532,1.568c-0.392,0.448-0.952,0.728-1.428,0.728
		c-0.364,0-0.616-0.28-0.616-0.7c0-0.084,0.028-0.28,0.084-0.784c0.112-1.12,0.196-2.436,0.196-3.276c0-1.26-0.084-1.708-0.42-2.072
		c-0.252-0.308-0.336-0.336-1.82-0.924L39.032,30.646z M40.684,14.378c1.4,0.532,2.604,1.12,3.5,1.652
		c0.756,0.476,1.036,0.84,1.036,1.372c0,0.868-0.476,1.736-0.924,1.736c-0.168,0-0.336-0.14-0.532-0.448
		c-0.896-1.428-1.764-2.52-3.276-4.06L40.684,14.378z M54.712,24.794h3.612c0.672-0.812,0.896-1.064,1.624-1.792
		c1.036,0.812,1.344,1.092,2.324,2.044c0.056,0.084,0.084,0.168,0.084,0.224c0,0.084-0.112,0.168-0.28,0.168h-7.364v5.208h4.928
		c0.728-0.84,0.98-1.12,1.736-1.932c1.12,0.896,1.428,1.204,2.464,2.184c0.056,0.084,0.112,0.168,0.112,0.224
		c0,0.112-0.112,0.168-0.28,0.168h-8.96v0.924c0,1.988,0.056,3.976,0.168,6.552c-0.028,0.196-0.084,0.28-0.252,0.336
		c-0.196,0.084-0.98,0.168-1.456,0.168c-0.364,0-0.504-0.112-0.504-0.364c0.084-1.848,0.14-4.508,0.14-6.832V31.29h-5.18
		c-1.036,0-1.904,0.056-2.436,0.196l-0.224-1.092c0.672,0.168,1.54,0.252,2.66,0.252h5.18v-5.208h-3.556
		c-0.784,0-1.54,0.056-2.156,0.196L46.9,24.57c0.644,0.14,1.54,0.224,2.352,0.224h3.556v-4.536h-4.396
		c-0.588,0-1.232,0.056-1.708,0.14l-0.196-1.008c0.672,0.168,1.26,0.224,2.016,0.224h2.352c-0.196-0.224-0.196-0.224-0.448-1.092
		c-0.392-1.288-0.84-2.184-2.016-3.976l0.252-0.252c0.392,0.28,0.7,0.504,0.896,0.644c1.316,0.868,1.484,1.008,2.128,1.68
		c0.448,0.476,0.616,0.784,0.616,1.092c0,0.644-0.448,1.568-0.896,1.904h3.78c0.812-1.372,1.68-3.388,2.324-5.376
		c3.108,1.064,3.108,1.064,3.108,1.316c0,0.224-0.196,0.28-1.372,0.364c-1.876,2.24-2.156,2.576-3.388,3.696h3.192
		c0.784-0.896,1.008-1.148,1.764-1.96c1.092,0.924,1.4,1.204,2.352,2.212c0.084,0.084,0.112,0.168,0.112,0.196
		c0,0.112-0.14,0.196-0.28,0.196h-8.288V24.794z"/>
</g>
<g>
	<path d="M5.404,41.972c0.42,0,1.078,0.126,1.414,0.266c0.28,0.112,0.392,0.252,0.392,0.448c0,0.014,0,0.028,0,0.028
		c0,0.112-0.014,0.112-0.112,0.364C6.93,43.554,6.79,44.758,6.79,45.92c0,0.826,0.112,1.036,0.546,1.036
		c0.294,0,0.602-0.112,1.876-0.714c0.252-0.126,0.406-0.168,0.574-0.168c0.336,0,0.672,0.294,0.672,0.588
		c0,0.182-0.098,0.336-0.294,0.42c-0.098,0.042-0.294,0.112-0.938,0.294c-1.694,0.476-2.618,0.896-3.5,1.568
		c-0.756,0.588-1.092,1.134-1.092,1.792c0,1.008,0.798,1.526,2.352,1.526c0.868,0,2.24-0.168,3.248-0.406
		c0.14-0.028,0.196-0.042,0.28-0.042c0.364,0,0.756,0.35,0.756,0.686c0,0.252-0.154,0.378-0.602,0.462
		c-0.448,0.084-1.848,0.182-2.688,0.182c-1.022,0-1.792-0.112-2.38-0.322c-0.938-0.35-1.526-1.148-1.526-2.072
		c0-0.812,0.448-1.582,1.372-2.352c0.42-0.364,0.882-0.672,1.708-1.12c-0.308,0-0.434-0.042-0.672-0.21
		c-0.21-0.154-0.336-0.462-0.406-1.064C6.034,45.668,6.02,45.36,5.978,44.31c-0.042-1.19-0.056-1.4-0.168-1.61
		c-0.154-0.266-0.42-0.406-1.008-0.504C5.012,42.014,5.124,41.972,5.404,41.972z"/>
	<path d="M24.024,53.998c0.826-0.672,1.372-1.246,1.848-2.016c0.728-1.19,1.19-2.814,1.19-4.256c0-1.386-0.504-2.24-1.33-2.24
		c-0.742,0-1.722,0.602-2.688,1.652c-0.266,0.266-0.35,0.322-0.574,0.322c-0.294,0-0.63-0.224-0.924-0.63
		c-0.238-0.322-0.378-0.686-0.378-0.938c0-0.182,0.056-0.308,0.224-0.518c0.126,0.616,0.406,0.966,0.77,0.966
		c0.196,0,0.56-0.154,1.288-0.546c1.19-0.644,1.652-0.798,2.366-0.798c0.644,0,1.33,0.364,1.736,0.938
		c0.336,0.49,0.532,1.218,0.532,2.058c0,1.652-0.63,3.29-1.736,4.522c-0.686,0.756-1.4,1.288-2.198,1.638L24.024,53.998z
		 M23.254,41.272c0.686,0.574,1.638,0.896,2.618,0.896h0.322c0.28,0,0.476,0.098,0.756,0.336c0.196,0.168,0.294,0.336,0.294,0.476
		c0,0.196-0.196,0.308-0.574,0.308c-0.588,0.014-0.588,0.014-3.486,0.854l-0.07-0.196c1.05-0.476,2.016-0.91,2.366-1.036
		c-1.148-0.238-1.834-0.672-2.366-1.526L23.254,41.272z"/>
	<path d="M41.272,42.098c0.336,0,0.714,0.056,1.12,0.168c0.476,0.126,0.7,0.322,0.7,0.602c0,0.112,0,0.112-0.112,0.392
		c-0.154,0.434-0.28,1.302-0.28,2.016c0,0.056,0,0.154,0,0.266c0.14,0.126,0.21,0.154,0.378,0.154c0.532,0,1.61-0.42,2.128-0.826
		c0.154-0.112,0.224-0.154,0.308-0.154c0.126,0,0.406,0.084,0.602,0.182c0.224,0.126,0.294,0.21,0.294,0.336
		c0,0.21-0.182,0.322-0.826,0.56c-0.756,0.28-1.428,0.434-1.946,0.434c-0.406,0-0.63-0.084-0.938-0.35c0,0.266,0,0.49,0,0.616
		c0,1.106,0.07,2.744,0.154,3.654c1.092,0.182,2.128,0.546,2.954,1.022c0.602,0.336,0.868,0.714,0.868,1.204
		c0,0.336-0.098,0.532-0.28,0.532c-0.098,0-0.182-0.056-0.336-0.182c-1.19-1.008-1.848-1.386-3.15-1.778
		c0.028,0.658,0.028,0.658,0.028,0.91c0,0.686-0.322,1.134-0.994,1.386c-0.336,0.126-0.924,0.21-1.428,0.21
		c-1.47,0-2.394-0.588-2.394-1.526c0-0.672,0.476-1.204,1.358-1.54c0.546-0.21,1.302-0.336,2.03-0.336c0.112,0,0.294,0,0.532,0.014
		c-0.084-5.628-0.084-5.628-0.196-6.566c-0.098-0.812-0.308-1.036-1.218-1.19C40.852,42.14,40.964,42.098,41.272,42.098z
		 M40.964,50.708c-1.442,0-2.478,0.49-2.478,1.19c0,0.56,0.574,0.882,1.568,0.882c0.812,0,1.484-0.224,1.75-0.574
		c0.182-0.224,0.224-0.518,0.224-1.47C41.58,50.708,41.412,50.708,40.964,50.708z"/>
	<path d="M59.024,53.998c0.826-0.672,1.372-1.246,1.848-2.016c0.728-1.19,1.19-2.814,1.19-4.256c0-1.386-0.504-2.24-1.33-2.24
		c-0.742,0-1.722,0.602-2.688,1.652c-0.266,0.266-0.35,0.322-0.574,0.322c-0.294,0-0.63-0.224-0.924-0.63
		c-0.238-0.322-0.378-0.686-0.378-0.938c0-0.182,0.056-0.308,0.224-0.518c0.126,0.616,0.406,0.966,0.77,0.966
		c0.196,0,0.56-0.154,1.288-0.546c1.19-0.644,1.652-0.798,2.366-0.798c0.644,0,1.33,0.364,1.736,0.938
		c0.336,0.49,0.532,1.218,0.532,2.058c0,1.652-0.63,3.29-1.736,4.522c-0.686,0.756-1.4,1.288-2.198,1.638L59.024,53.998z
		 M58.254,41.272c0.686,0.574,1.638,0.896,2.618,0.896h0.322c0.28,0,0.476,0.098,0.756,0.336c0.196,0.168,0.294,0.336,0.294,0.476
		c0,0.196-0.196,0.308-0.574,0.308c-0.588,0.014-0.588,0.014-3.486,0.854l-0.07-0.196c1.05-0.476,2.016-0.91,2.366-1.036
		c-1.148-0.238-1.834-0.672-2.366-1.526L58.254,41.272z"/>
</g>
</svg>
